<?xml version="1.0" encoding="utf-8"?>
<!-- Generator: Adobe Illustrator 22.1.0, SVG Export Plug-In . SVG Version: 6.00 Build 0)  -->
<svg version="1.1" id="Layer_1" xmlns="http://www.w3.org/2000/svg" xmlns:xlink="http://www.w3.org/1999/xlink" x="0px" y="0px"
	 viewBox="0 0 760 168" style="enable-background:new 0 0 760 168;" xml:space="preserve">
<style type="text/css">
	.st0{fill:url(#SVGID_1_);}
	.st1{fill:url(#SVGID_2_);}
	.st2{fill:url(#SVGID_3_);}
	.st3{fill:url(#SVGID_4_);}
	.st4{fill:#95A2AC;}
	.st5{fill:url(#SVGID_5_);}
</style>
<g>
	<g>
		
			<linearGradient id="SVGID_1_" gradientUnits="userSpaceOnUse" x1="318.7785" y1="92.3211" x2="587.4878" y2="215.2341" gradientTransform="matrix(1 0 0 -1 0 170)">
			<stop  offset="0" style="stop-color:#54D9BE"/>
			<stop  offset="1" style="stop-color:#363A8E"/>
		</linearGradient>
		<path class="st0" d="M357.3,115.1c-30.3,0-55-24.6-55-55c0-30.3,24.6-55,55-55c30.3,0,55,24.6,55,55
			C412.2,90.4,387.5,115.1,357.3,115.1z M357.3,37.7c-12.3,0-22.3,10-22.3,22.3c0,12.3,10,22.3,22.3,22.3c12.3,0,22.3-10,22.3-22.3
			C379.7,47.7,369.6,37.7,357.3,37.7z"/>
	</g>
	
		<linearGradient id="SVGID_2_" gradientUnits="userSpaceOnUse" x1="341.4941" y1="46.1785" x2="766.914" y2="280.0862" gradientTransform="matrix(-1 0 0 -1 613.8926 170)">
		<stop  offset="0" style="stop-color:#54D9BE"/>
		<stop  offset="1" style="stop-color:#363A8E"/>
	</linearGradient>
	<path class="st1" d="M197.1,150.1L197.1,150.1c20.2,0,36.6-16.4,36.6-36.6V34.9l0,0c-20.2,0-36.6,16.4-36.6,36.6L197.1,150.1
		L197.1,150.1z"/>
	
		<linearGradient id="SVGID_3_" gradientUnits="userSpaceOnUse" x1="197.3378" y1="-30.3068" x2="646.4536" y2="216.6294" gradientTransform="matrix(1 0 0 -1 0 170)">
		<stop  offset="0" style="stop-color:#54D9BE"/>
		<stop  offset="1" style="stop-color:#363A8E"/>
	</linearGradient>
	<path class="st2" d="M380.3,160.7v5.6h-71.4c-14.2,0-27.7-5.6-37.8-15.7l-1.7-1.7c-11.8-11.8-18.7-27.5-19.6-44.1
		c0.1,1,3.5,24.7,36.7,24.7h62.5C366.3,129.6,380.3,143.5,380.3,160.7z"/>
	
		<linearGradient id="SVGID_4_" gradientUnits="userSpaceOnUse" x1="268.0726" y1="141.7896" x2="268.0726" y2="-57.3097" gradientTransform="matrix(1 0 0 -1 0 170)">
		<stop  offset="0" style="stop-color:#54D9BE"/>
		<stop  offset="1" style="stop-color:#363A8E"/>
	</linearGradient>
	<path class="st3" d="M249.7,104.8c0,0,2.8,24.7,36.8,24.7V66.9c0-17.2-14-31.3-31.3-31.3h-5.6L249.7,104.8z"/>
	<g>
		<g>
			<path class="st4" d="M613.8,50.7V104h-22.3l0,0V29.7h1.4C604.3,29.8,613.8,39.1,613.8,50.7z"/>
		</g>
		<g>
			<g>
				<path class="st4" d="M445.4,22.6v81.4H423V1.7h1.4C436,1.7,445.4,11.1,445.4,22.6z"/>
			</g>
		</g>
		<g>
			<g>
				<path class="st4" d="M463,104c-21.3,0-38.5-17.2-38.5-38.5S441.7,27,463,27c21.3,0,38.5,17.2,38.5,38.5S484.3,104,463,104z
					 M463,49.2c-9,0-16.3,7.4-16.3,16.3c0,9,7.4,16.3,16.3,16.3c9,0,16.3-7.4,16.3-16.3C479.3,56.5,472,49.2,463,49.2z"/>
			</g>
		</g>
		<g>
			<path class="st4" d="M585,68.3v35.8h-1.4c-11.6,0-20.9-9.4-20.9-20.9V68.3H585z"/>
		</g>
		<g>
			<path class="st4" d="M546.5,104c-21.3,0-38.5-17.2-38.5-38.5S525.3,27,546.5,27c21.3,0,38.5,17.2,38.5,38.5S567.8,104,546.5,104z
				 M546.5,49.2c-9,0-16.3,7.4-16.3,16.3c0,9,7.4,16.3,16.3,16.3c9,0,16.3-7.4,16.3-16.3C562.8,56.5,555.4,49.2,546.5,49.2z"/>
		</g>
		<g>
			<g>
				<path class="st4" d="M668.5,68.3v35.8h-22.2V68.8c0-8.5-6.3-15.9-14.7-16.8c-9.7-0.9-17.8,6.8-17.8,16.2V104h-22.2V69.1
					c0-21,16.5-38.7,37.3-39.3C650.6,29.1,668.5,46.7,668.5,68.3z"/>
			</g>
		</g>
	</g>
	
		<linearGradient id="SVGID_5_" gradientUnits="userSpaceOnUse" x1="185.2332" y1="104.7039" x2="-303.508" y2="-94.2583" gradientTransform="matrix(1 0 0 -1 0 170)">
		<stop  offset="0" style="stop-color:#54D9BE"/>
		<stop  offset="1" style="stop-color:#363A8E"/>
	</linearGradient>
	<path class="st5" d="M190.1,40.4L155,148.9h-15.7c-11.1,0-21.4-5.9-27.1-15.5l-14.6-24.9l-16.9,29.2c-5.6,9.7-16,15.7-27.2,15.7
		H35.6l-28-87h38.9l11.1,35.4l20.9-37.6c3.9-7,11.3-11.4,19.3-11.4l0,0c7.8,0,15.1,4.1,19,10.9l17.3,29.7L144.3,62
		c4.2-12.9,16.3-21.7,29.8-21.7H190.1z"/>
	<g>
		<path class="st4" d="M697.2,22.6v81.4h-22.3V1.7h1.4C687.8,1.7,697.2,11.1,697.2,22.6z"/>
	</g>
	<g>
		<path class="st4" d="M731.9,49.7L703,78.1l-15.7-16L731.2,19l1,1C740.3,28.3,740.1,41.6,731.9,49.7z"/>
	</g>
	<g>
		<path class="st4" d="M722.2,99.9l-32.7-24.1l13.4-17.9l49.6,36.6l-0.9,1.2C744.7,104.9,731.5,106.8,722.2,99.9z"/>
	</g>
</g>
</svg>
